G75*
G70*
%OFA0B0*%
%FSLAX24Y24*%
%IPPOS*%
%LPD*%
%AMOC8*
5,1,8,0,0,1.08239X$1,22.5*
%
%ADD10C,0.0000*%
%ADD11C,0.0080*%
%ADD12C,0.0030*%
%ADD13C,0.0050*%
%ADD14C,0.0060*%
%ADD15C,0.0160*%
%ADD16C,0.0020*%
D10*
X003851Y000160D02*
X003851Y013430D01*
X018943Y013430D01*
X018943Y000160D01*
X003851Y000160D01*
X003851Y003460D02*
X003851Y007860D01*
X012331Y006200D02*
X012333Y006179D01*
X012338Y006159D01*
X012347Y006140D01*
X012359Y006123D01*
X012374Y006108D01*
X012391Y006096D01*
X012410Y006087D01*
X012430Y006082D01*
X012451Y006080D01*
X012472Y006082D01*
X012492Y006087D01*
X012511Y006096D01*
X012528Y006108D01*
X012543Y006123D01*
X012555Y006140D01*
X012564Y006159D01*
X012569Y006179D01*
X012571Y006200D01*
X012569Y006179D01*
X012564Y006159D01*
X012555Y006140D01*
X012543Y006123D01*
X012528Y006108D01*
X012511Y006096D01*
X012492Y006087D01*
X012472Y006082D01*
X012451Y006080D01*
X012430Y006082D01*
X012410Y006087D01*
X012391Y006096D01*
X012374Y006108D01*
X012359Y006123D01*
X012347Y006140D01*
X012338Y006159D01*
X012333Y006179D01*
X012331Y006200D01*
X012333Y006179D01*
X012338Y006159D01*
X012347Y006140D01*
X012359Y006123D01*
X012374Y006108D01*
X012391Y006096D01*
X012410Y006087D01*
X012430Y006082D01*
X012451Y006080D01*
X012472Y006082D01*
X012492Y006087D01*
X012511Y006096D01*
X012528Y006108D01*
X012543Y006123D01*
X012555Y006140D01*
X012564Y006159D01*
X012569Y006179D01*
X012571Y006200D01*
X018951Y007860D02*
X018951Y003460D01*
D11*
X018990Y003829D02*
X019561Y003829D01*
X019561Y004873D01*
X020407Y004873D01*
X020703Y004577D01*
X022199Y004577D01*
X022199Y004912D01*
X022661Y004912D01*
X022661Y006408D01*
X022199Y006408D01*
X022199Y006743D01*
X020703Y006743D01*
X020407Y006447D01*
X019561Y006447D01*
X019561Y007491D01*
X018990Y007491D01*
X018990Y007176D02*
X018990Y004144D01*
X003811Y004144D02*
X003811Y007176D01*
X003811Y007491D02*
X003240Y007491D01*
X003240Y006447D01*
X002394Y006447D01*
X002099Y006743D01*
X000603Y006743D01*
X000603Y006408D01*
X000140Y006408D01*
X000140Y004912D01*
X000603Y004912D01*
X000603Y004577D01*
X002099Y004577D01*
X002394Y004873D01*
X003240Y004873D01*
X003240Y003829D01*
X003811Y003829D01*
D12*
X008200Y006610D02*
X008200Y006919D01*
X008447Y006919D02*
X008447Y006610D01*
X008385Y006548D01*
X008262Y006548D01*
X008200Y006610D01*
X008568Y006548D02*
X008815Y006548D01*
X008692Y006548D02*
X008692Y006919D01*
X008568Y006795D01*
X010016Y006345D02*
X010016Y005975D01*
X010263Y005975D01*
X010384Y006037D02*
X010446Y005975D01*
X010569Y005975D01*
X010631Y006037D01*
X010631Y006160D01*
X010569Y006222D01*
X010507Y006222D01*
X010384Y006160D01*
X010384Y006345D01*
X010631Y006345D01*
X010879Y006575D02*
X010879Y006945D01*
X011064Y006945D01*
X011126Y006884D01*
X011126Y006760D01*
X011064Y006698D01*
X010879Y006698D01*
X011002Y006698D02*
X011126Y006575D01*
X011247Y006637D02*
X011309Y006575D01*
X011432Y006575D01*
X011494Y006637D01*
X011494Y006760D01*
X011432Y006822D01*
X011371Y006822D01*
X011247Y006760D01*
X011247Y006945D01*
X011494Y006945D01*
X011432Y007275D02*
X011432Y007645D01*
X011247Y007460D01*
X011494Y007460D01*
X011126Y007337D02*
X011064Y007275D01*
X010941Y007275D01*
X010879Y007337D01*
X010879Y007584D01*
X010941Y007645D01*
X011064Y007645D01*
X011126Y007584D01*
X011164Y008775D02*
X011226Y008837D01*
X011164Y008775D02*
X011041Y008775D01*
X010979Y008837D01*
X010979Y009084D01*
X011041Y009145D01*
X011164Y009145D01*
X011226Y009084D01*
X011347Y008960D02*
X011532Y008960D01*
X011594Y008898D01*
X011594Y008837D01*
X011532Y008775D01*
X011409Y008775D01*
X011347Y008837D01*
X011347Y008960D01*
X011471Y009084D01*
X011594Y009145D01*
X011347Y009475D02*
X011347Y009537D01*
X011594Y009784D01*
X011594Y009845D01*
X011347Y009845D01*
X011226Y009784D02*
X011164Y009845D01*
X011041Y009845D01*
X010979Y009784D01*
X010979Y009537D01*
X011041Y009475D01*
X011164Y009475D01*
X011226Y009537D01*
X013365Y010287D02*
X013427Y010225D01*
X013674Y010225D01*
X013736Y010287D01*
X013736Y010410D01*
X013674Y010472D01*
X013674Y010593D02*
X013736Y010655D01*
X013736Y010778D01*
X013674Y010840D01*
X013550Y010840D01*
X013489Y010778D01*
X013489Y010717D01*
X013550Y010593D01*
X013365Y010593D01*
X013365Y010840D01*
X013427Y010472D02*
X013365Y010410D01*
X013365Y010287D01*
X014551Y009184D02*
X014612Y009245D01*
X014736Y009245D01*
X014798Y009184D01*
X014919Y009184D02*
X014981Y009245D01*
X015104Y009245D01*
X015166Y009184D01*
X015166Y009122D01*
X014919Y008875D01*
X015166Y008875D01*
X014798Y008937D02*
X014736Y008875D01*
X014612Y008875D01*
X014551Y008937D01*
X014551Y009184D01*
X013736Y008778D02*
X013365Y008778D01*
X013550Y008593D01*
X013550Y008840D01*
X013736Y008472D02*
X013736Y008225D01*
X013365Y008225D01*
X013751Y008184D02*
X013751Y007937D01*
X013812Y007875D01*
X013936Y007875D01*
X013998Y007937D01*
X014119Y007937D02*
X014181Y007875D01*
X014304Y007875D01*
X014366Y007937D01*
X014366Y007998D01*
X014304Y008060D01*
X014242Y008060D01*
X014304Y008060D02*
X014366Y008122D01*
X014366Y008184D01*
X014304Y008245D01*
X014181Y008245D01*
X014119Y008184D01*
X013998Y008184D02*
X013936Y008245D01*
X013812Y008245D01*
X013751Y008184D01*
X014512Y007445D02*
X014451Y007384D01*
X014451Y007137D01*
X014512Y007075D01*
X014636Y007075D01*
X014698Y007137D01*
X014819Y007075D02*
X015066Y007075D01*
X014942Y007075D02*
X014942Y007445D01*
X014819Y007322D01*
X014698Y007384D02*
X014636Y007445D01*
X014512Y007445D01*
X013736Y006942D02*
X013736Y006818D01*
X013674Y006757D01*
X013736Y006635D02*
X013736Y006388D01*
X013365Y006388D01*
X013427Y006757D02*
X013365Y006818D01*
X013365Y006942D01*
X013427Y007004D01*
X013489Y007004D01*
X013550Y006942D01*
X013612Y007004D01*
X013674Y007004D01*
X013736Y006942D01*
X013550Y006942D02*
X013550Y006880D01*
X013979Y006345D02*
X014164Y006345D01*
X014226Y006284D01*
X014226Y006160D01*
X014164Y006098D01*
X013979Y006098D01*
X013979Y005975D02*
X013979Y006345D01*
X014102Y006098D02*
X014226Y005975D01*
X014347Y006037D02*
X014409Y005975D01*
X014532Y005975D01*
X014594Y006037D01*
X014594Y006098D01*
X014532Y006160D01*
X014471Y006160D01*
X014532Y006160D02*
X014594Y006222D01*
X014594Y006284D01*
X014532Y006345D01*
X014409Y006345D01*
X014347Y006284D01*
X015865Y006213D02*
X015865Y006090D01*
X015927Y006028D01*
X015865Y006213D02*
X015927Y006275D01*
X015989Y006275D01*
X016236Y006028D01*
X016236Y006275D01*
X016236Y006625D02*
X015865Y006625D01*
X016236Y006625D02*
X016236Y006872D01*
X016236Y006993D02*
X016236Y007240D01*
X016236Y007117D02*
X015865Y007117D01*
X015989Y006993D01*
X016236Y005907D02*
X016236Y005660D01*
X015865Y005660D01*
X015304Y004545D02*
X015181Y004545D01*
X015119Y004484D01*
X014998Y004484D02*
X014998Y004360D01*
X014936Y004298D01*
X014751Y004298D01*
X014751Y004175D02*
X014751Y004545D01*
X014936Y004545D01*
X014998Y004484D01*
X014874Y004298D02*
X014998Y004175D01*
X015119Y004175D02*
X015366Y004422D01*
X015366Y004484D01*
X015304Y004545D01*
X015366Y004175D02*
X015119Y004175D01*
X014166Y004460D02*
X013919Y004460D01*
X014104Y004645D01*
X014104Y004275D01*
X013798Y004275D02*
X013674Y004398D01*
X013736Y004398D02*
X013551Y004398D01*
X013551Y004275D02*
X013551Y004645D01*
X013736Y004645D01*
X013798Y004584D01*
X013798Y004460D01*
X013736Y004398D01*
X011366Y004422D02*
X011304Y004360D01*
X011181Y004360D01*
X011119Y004422D01*
X011119Y004484D01*
X011181Y004545D01*
X011304Y004545D01*
X011366Y004484D01*
X011366Y004422D01*
X011304Y004360D02*
X011366Y004298D01*
X011366Y004237D01*
X011304Y004175D01*
X011181Y004175D01*
X011119Y004237D01*
X011119Y004298D01*
X011181Y004360D01*
X010998Y004237D02*
X010936Y004175D01*
X010812Y004175D01*
X010751Y004237D01*
X010751Y004484D01*
X010812Y004545D01*
X010936Y004545D01*
X010998Y004484D01*
X010166Y004545D02*
X010042Y004484D01*
X009919Y004360D01*
X010104Y004360D01*
X010166Y004298D01*
X010166Y004237D01*
X010104Y004175D01*
X009981Y004175D01*
X009919Y004237D01*
X009919Y004360D01*
X009798Y004360D02*
X009798Y004484D01*
X009736Y004545D01*
X009551Y004545D01*
X009551Y004175D01*
X009551Y004298D02*
X009736Y004298D01*
X009798Y004360D01*
X009674Y004298D02*
X009798Y004175D01*
X005331Y007975D02*
X005084Y007975D01*
X005207Y007975D02*
X005207Y008345D01*
X005084Y008222D01*
X004963Y008345D02*
X004839Y008345D01*
X004901Y008345D02*
X004901Y008037D01*
X004839Y007975D01*
X004777Y007975D01*
X004716Y008037D01*
X014865Y009760D02*
X014865Y009945D01*
X014927Y010007D01*
X015050Y010007D01*
X015112Y009945D01*
X015112Y009760D01*
X015112Y009883D02*
X015236Y010007D01*
X015236Y010128D02*
X015236Y010375D01*
X015236Y010252D02*
X014865Y010252D01*
X014989Y010128D01*
X014865Y009760D02*
X015236Y009760D01*
X017402Y003445D02*
X017526Y003445D01*
X017464Y003445D02*
X017464Y003137D01*
X017402Y003075D01*
X017341Y003075D01*
X017279Y003137D01*
X017647Y003075D02*
X017894Y003322D01*
X017894Y003384D01*
X017832Y003445D01*
X017709Y003445D01*
X017647Y003384D01*
X017647Y003075D02*
X017894Y003075D01*
D13*
X008918Y004892D02*
X008918Y004928D01*
X008918Y004892D02*
X007383Y004892D01*
X007383Y004928D01*
X007383Y006392D02*
X007383Y006428D01*
X008918Y006428D01*
X008918Y006392D01*
D14*
X011811Y006200D02*
X011811Y006050D01*
X011811Y006200D02*
X012331Y006200D01*
X012571Y006200D01*
X013091Y006200D01*
X013091Y006050D01*
X013091Y005070D02*
X013091Y004920D01*
X011811Y004920D01*
X011811Y005070D01*
D15*
X011651Y006160D02*
X011653Y006180D01*
X011659Y006198D01*
X011668Y006216D01*
X011680Y006231D01*
X011695Y006243D01*
X011713Y006252D01*
X011731Y006258D01*
X011751Y006260D01*
X011771Y006258D01*
X011789Y006252D01*
X011807Y006243D01*
X011822Y006231D01*
X011834Y006216D01*
X011843Y006198D01*
X011849Y006180D01*
X011851Y006160D01*
X011849Y006140D01*
X011843Y006122D01*
X011834Y006104D01*
X011822Y006089D01*
X011807Y006077D01*
X011789Y006068D01*
X011771Y006062D01*
X011751Y006060D01*
X011731Y006062D01*
X011713Y006068D01*
X011695Y006077D01*
X011680Y006089D01*
X011668Y006104D01*
X011659Y006122D01*
X011653Y006140D01*
X011651Y006160D01*
D16*
X012131Y004800D02*
X012131Y004483D01*
X012194Y004420D01*
X012321Y004420D01*
X012384Y004483D01*
X012384Y004800D01*
X012499Y004737D02*
X012562Y004800D01*
X012689Y004800D01*
X012752Y004737D01*
X012752Y004674D01*
X012499Y004420D01*
X012752Y004420D01*
M02*
