G75*
G70*
%OFA0B0*%
%FSLAX24Y24*%
%IPPOS*%
%LPD*%
%AMOC8*
5,1,8,0,0,1.08239X$1,22.5*
%
%ADD10R,0.1730X0.1130*%
%ADD11R,0.0250X0.0780*%
%ADD12R,0.0480X0.0480*%
%ADD13C,0.0640*%
%ADD14C,0.0360*%
%ADD15C,0.0437*%
D10*
X004683Y004084D03*
X004683Y007236D03*
X018118Y007236D03*
X018118Y004084D03*
D11*
X015531Y010460D03*
X015281Y010460D03*
X015021Y010460D03*
X014771Y010460D03*
X014771Y012060D03*
X015021Y012060D03*
X015281Y012060D03*
X015531Y012060D03*
D12*
X016151Y011295D03*
X016851Y011295D03*
X016851Y010625D03*
X016151Y010625D03*
X016151Y010095D03*
X016151Y009425D03*
X015600Y008860D03*
X014931Y008860D03*
X014200Y008860D03*
X013531Y008860D03*
X014151Y010525D03*
X014151Y011195D03*
D13*
X017471Y010360D02*
X018031Y010360D01*
X018031Y009360D02*
X017471Y009360D01*
D14*
X016001Y009010D03*
X016001Y008460D03*
X016001Y007960D03*
X016001Y007360D03*
X016001Y006760D03*
X016001Y006110D03*
X015101Y006110D03*
X014551Y006110D03*
X013951Y006110D03*
X013451Y006110D03*
X013501Y006660D03*
X013501Y007160D03*
X014051Y007160D03*
X014501Y007460D03*
X014151Y007760D03*
X014501Y008160D03*
X014101Y008410D03*
X013501Y008410D03*
X013501Y007960D03*
X012601Y008010D03*
X012601Y008410D03*
X011951Y008460D03*
X011551Y008860D03*
X011951Y009260D03*
X011551Y009660D03*
X011951Y010060D03*
X012601Y010110D03*
X012651Y010760D03*
X013451Y010760D03*
X013351Y011360D03*
X012751Y011360D03*
X014151Y010060D03*
X014701Y009860D03*
X014701Y009310D03*
X014151Y009310D03*
X013501Y009310D03*
X013501Y010010D03*
X015101Y008160D03*
X015101Y007360D03*
X015101Y006760D03*
X016951Y006110D03*
X017551Y006110D03*
X018151Y006110D03*
X018151Y006810D03*
X017451Y006910D03*
X017451Y007610D03*
X018151Y007710D03*
X018151Y005210D03*
X017551Y005210D03*
X016951Y005210D03*
X016051Y005210D03*
X015451Y005210D03*
X015351Y004610D03*
X014751Y004610D03*
X014251Y004660D03*
X013751Y004560D03*
X013451Y004960D03*
X012951Y004960D03*
X012451Y005060D03*
X011951Y004960D03*
X011451Y004960D03*
X011151Y004560D03*
X010701Y004660D03*
X010201Y004660D03*
X010251Y005210D03*
X010651Y005210D03*
X009551Y004560D03*
X008951Y004760D03*
X009351Y005210D03*
X008351Y004760D03*
X007751Y004760D03*
X007151Y004760D03*
X006951Y005210D03*
X005851Y005210D03*
X005251Y005210D03*
X004651Y005210D03*
X004651Y004510D03*
X005351Y004410D03*
X005351Y003710D03*
X004651Y003610D03*
X004651Y006110D03*
X005251Y006110D03*
X005851Y006110D03*
X005351Y006910D03*
X004651Y006810D03*
X004651Y007710D03*
X005351Y007610D03*
X007151Y006560D03*
X006951Y006110D03*
X007751Y006560D03*
X008351Y006560D03*
X008951Y006560D03*
X009351Y006110D03*
X009851Y006110D03*
X010451Y006110D03*
X010951Y006110D03*
X011451Y006110D03*
X011451Y006710D03*
X011951Y007060D03*
X011651Y007560D03*
X011951Y007960D03*
X012601Y007060D03*
X012451Y006060D03*
X012451Y005560D03*
X014251Y005210D03*
X014651Y005210D03*
X017451Y004410D03*
X018151Y004510D03*
X017451Y003710D03*
X018151Y003610D03*
D15*
X004651Y002860D03*
X005351Y002860D03*
X006251Y002660D03*
X006251Y001660D03*
X007251Y001660D03*
X008551Y001660D03*
X009651Y001660D03*
X010851Y001660D03*
X011951Y001660D03*
X013251Y001660D03*
X014351Y001660D03*
X015651Y001660D03*
X016451Y001660D03*
X016501Y002660D03*
X017451Y002860D03*
X018151Y002860D03*
X016501Y003960D03*
X016501Y005060D03*
X016501Y006260D03*
X016501Y007360D03*
X017451Y008460D03*
X018151Y008460D03*
X016501Y008660D03*
X013051Y008860D03*
X013051Y009660D03*
X014651Y011260D03*
X014351Y011910D03*
X013251Y011910D03*
X011951Y011910D03*
X010851Y011910D03*
X009651Y011910D03*
X008551Y011910D03*
X007251Y011910D03*
X006251Y011860D03*
X006251Y011060D03*
X007751Y010360D03*
X006251Y009760D03*
X007751Y008860D03*
X006251Y008660D03*
X005351Y008460D03*
X004651Y008460D03*
X006251Y007360D03*
X006451Y006260D03*
X007751Y007360D03*
X009251Y007360D03*
X010751Y007360D03*
X010751Y008860D03*
X009251Y008860D03*
X009251Y010360D03*
X010751Y010360D03*
X014851Y012660D03*
X015851Y012460D03*
X016451Y011860D03*
X015651Y011260D03*
X006451Y005060D03*
X006251Y003960D03*
X007951Y003360D03*
X009651Y003360D03*
X011351Y003360D03*
X013051Y003360D03*
X014751Y003360D03*
M02*
