%
M48
M72
T01C0.0120
T02C0.0197
T03C0.0360
%
T01
X4651Y3610
X5351Y3710
X5351Y4410
X4651Y4510
X4651Y5210
X5251Y5210
X5851Y5210
X6951Y5210
X7151Y4760
X7751Y4760
X8351Y4760
X8951Y4760
X9351Y5210
X10251Y5210
X10651Y5210
X10701Y4660
X11151Y4560
X11451Y4960
X11951Y4960
X12451Y5060
X12951Y4960
X13451Y4960
X13751Y4560
X14251Y4660
X14751Y4610
X15351Y4610
X15451Y5210
X16051Y5210
X16951Y5210
X17551Y5210
X18151Y5210
X18151Y4510
X17451Y4410
X17451Y3710
X18151Y3610
X14651Y5210
X14251Y5210
X14551Y6110
X13951Y6110
X13451Y6110
X13501Y6660
X13501Y7160
X14051Y7160
X14501Y7460
X14151Y7760
X14501Y8160
X14101Y8410
X13501Y8410
X13501Y7960
X12601Y8010
X12601Y8410
X11951Y8460
X11551Y8860
X11951Y9260
X11551Y9660
X11951Y10060
X12601Y10110
X12651Y10760
X13451Y10760
X13351Y11360
X12751Y11360
X14151Y10060
X14701Y9860
X14701Y9310
X14151Y9310
X13501Y9310
X13501Y10010
X15101Y8160
X16001Y7960
X16001Y8460
X16001Y9010
X17451Y7610
X18151Y7710
X17451Y6910
X18151Y6810
X18151Y6110
X17551Y6110
X16951Y6110
X16001Y6110
X16001Y6760
X16001Y7360
X15101Y7360
X15101Y6760
X15101Y6110
X12601Y7060
X11951Y7060
X11651Y7560
X11951Y7960
X11451Y6710
X11451Y6110
X10951Y6110
X10451Y6110
X9851Y6110
X9351Y6110
X8951Y6560
X8351Y6560
X7751Y6560
X7151Y6560
X6951Y6110
X5851Y6110
X5251Y6110
X4651Y6110
X4651Y6810
X5351Y6910
X5351Y7610
X4651Y7710
X9551Y4560
X10201Y4660
X12451Y5560
X12451Y6060
T02
X4651Y2860
X5351Y2860
X6251Y2660
X6251Y1660
X7251Y1660
X8551Y1660
X9651Y1660
X10851Y1660
X11951Y1660
X13251Y1660
X14351Y1660
X15651Y1660
X16451Y1660
X16501Y2660
X17451Y2860
X18151Y2860
X16501Y3960
X16501Y5060
X16501Y6260
X16501Y7360
X17451Y8460
X18151Y8460
X16501Y8660
X13051Y8860
X13051Y9660
X14651Y11260
X14351Y11910
X13251Y11910
X11951Y11910
X10851Y11910
X9651Y11910
X8551Y11910
X7251Y11910
X6251Y11860
X6251Y11060
X7751Y10360
X6251Y9760
X7751Y8860
X6251Y8660
X5351Y8460
X4651Y8460
X6251Y7360
X6451Y6260
X7751Y7360
X9251Y7360
X10751Y7360
X10751Y8860
X9251Y8860
X9251Y10360
X10751Y10360
X14851Y12660
X15851Y12460
X16451Y11860
X15651Y11260
X6451Y5060
X6251Y3960
X7951Y3360
X9651Y3360
X11351Y3360
X13051Y3360
X14751Y3360
T03
X17751Y9360
X17751Y10360
M30
